# Blender v2.91.2 OBJ File: ''
# www.blender.org
mtllib untitled.mtl
o Plane
v -0.047000 0.000000 0.047000
v 0.047000 0.000000 0.047000
v -0.047000 0.000000 -0.047000
v 0.047000 0.000000 -0.047000
v -0.047000 0.000000 0.047000
v 0.047000 0.000000 0.047000
v -0.047000 0.000000 -0.047000
v 0.047000 0.000000 -0.047000
v -0.047000 0.000000 -0.047000
v -0.047000 0.000000 0.047000
v 0.047000 0.000000 0.047000
v 0.047000 0.000000 -0.047000
v -0.047000 0.000000 -0.047000
v -0.047000 0.000000 0.047000
v 0.047000 0.000000 0.047000
v 0.047000 0.000000 -0.047000
v -0.047000 0.005000 -0.047000
v -0.047000 0.005000 0.047000
v 0.047000 0.005000 0.047000
v 0.047000 0.005000 -0.047000
vt 0.000000 0.000000
vt 0.000000 1.000000
vt 1.000000 1.000000
vt 1.000000 0.000000
vt 1.000000 0.000000
vt 1.000000 1.000000
vt 1.000000 1.000000
vt 1.000000 0.000000
vt 0.000000 0.000000
vt 0.000000 1.000000
vt 0.000000 1.000000
vt 0.000000 1.000000
vt 1.000000 1.000000
vt 0.000000 0.000000
vt 1.000000 0.000000
vt 1.000000 1.000000
vt 1.000000 0.000000
vt 0.000000 0.000000
vt 0.000000 0.000000
vt 0.000000 1.000000
vn 0.0000 -1.0000 0.0000
vn 0.0000 0.0000 1.0000
vn 1.0000 0.0000 0.0000
vn 0.0000 1.0000 0.0000
vn -1.0000 0.0000 0.0000
vn 0.0000 0.0000 -1.0000
usemtl None
s off
f 1/1/1 3/2/1 4/3/1 2/4/1
f 6/5/2 8/6/2 12/7/2 11/8/2
f 2/4/2 4/3/2 8/6/2 6/5/2
f 3/2/2 1/1/2 5/9/2 7/10/2
f 4/3/2 3/2/2 7/10/2 8/6/2
f 1/1/2 2/4/2 6/5/2 5/9/2
f 12/7/2 9/11/2 13/12/2 16/13/2
f 7/10/2 5/9/2 10/14/2 9/11/2
f 8/6/2 7/10/2 9/11/2 12/7/2
f 5/9/2 6/5/2 11/8/2 10/14/2
f 15/15/3 16/13/3 20/16/3 19/17/3
f 10/14/2 11/8/2 15/15/2 14/18/2
f 11/8/2 12/7/2 16/13/2 15/15/2
f 9/11/2 10/14/2 14/18/2 13/12/2
f 18/19/4 19/17/4 20/16/4 17/20/4
f 13/12/5 14/18/5 18/19/5 17/20/5
f 16/13/6 13/12/6 17/20/6 20/16/6
f 14/18/2 15/15/2 19/17/2 18/19/2
